<?xml version="1.0" standalone="no"?>
<!DOCTYPE svg PUBLIC "-//W3C//DTD SVG 20010904//EN"
 "http://www.w3.org/TR/2001/REC-SVG-20010904/DTD/svg10.dtd">
<svg version="1.0" xmlns="http://www.w3.org/2000/svg"
 width="512.000000pt" height="512.000000pt" viewBox="0 0 512.000000 512.000000"
 preserveAspectRatio="xMidYMid meet">

<g transform="translate(0.000000,512.000000) scale(0.100000,-0.100000)"
fill="#000000" stroke="none">
<path d="M0 3095 l0 -2025 2560 0 2560 0 0 2025 0 2025 -2560 0 -2560 0 0
-2025z m2863 1197 c22 -2 27 -7 27 -27 0 -20 5 -25 24 -25 21 0 24 -6 30 -49
4 -27 3 -93 0 -145 l-7 -96 -28 0 c-25 0 -29 -4 -29 -29 0 -25 -4 -30 -27 -33
-27 -3 -28 -5 -25 -53 2 -27 0 -78 -3 -112 -6 -58 -8 -62 -33 -65 -21 -2 -28
-9 -30 -30 -3 -22 -9 -28 -27 -28 -18 0 -24 -6 -27 -27 -2 -22 -9 -29 -30 -31
-22 -3 -28 -9 -28 -27 0 -18 -6 -24 -27 -27 -28 -3 -28 -3 -31 -90 l-3 -88 31
0 c27 0 30 3 30 30 0 23 5 31 24 36 15 3 26 14 28 27 2 16 11 23 31 25 23 3
27 8 27 33 0 24 4 29 24 29 26 0 28 7 38 135 l3 30 82 3 c81 3 82 3 85 30 2
21 9 28 30 30 21 3 27 9 30 30 2 21 9 28 30 30 25 3 27 7 30 55 3 49 5 52 31
55 l28 3 -3 -148 -3 -148 -57 3 -58 4 0 -31 c0 -26 -4 -31 -25 -31 -24 0 -25
-3 -25 -55 0 -54 0 -55 -30 -55 l-30 0 0 -60 c0 -60 0 -60 -29 -60 -25 0 -30
-4 -33 -27 -2 -22 -9 -29 -32 -31 -28 -3 -28 -5 -22 -48 7 -55 0 -74 -30 -74
-21 0 -23 -5 -26 -52 -3 -49 -5 -53 -30 -56 -25 -3 -27 -7 -30 -60 -3 -50 -6
-57 -25 -60 -15 -2 -23 -10 -23 -23 0 -22 -6 -25 -72 -34 -38 -5 -47 -10 -50
-28 -2 -17 -12 -23 -46 -29 -23 -4 -61 -4 -85 0 -33 6 -43 12 -45 30 -2 15
-10 22 -26 22 -26 0 -46 18 -46 41 0 11 -9 19 -22 21 -16 2 -24 11 -26 30 -3
21 -9 27 -30 30 -25 3 -27 7 -30 55 -3 48 -5 52 -30 55 -21 2 -28 9 -30 30 -2
19 -10 28 -25 30 -16 2 -23 11 -25 31 -3 22 -8 27 -32 27 -24 0 -29 5 -32 28
-2 19 -9 28 -25 30 -19 3 -22 12 -28 67 -4 35 -4 86 0 113 5 42 11 51 28 54
19 3 22 10 25 61 3 56 4 57 32 57 24 0 29 5 32 28 3 26 6 27 61 30 l57 3 0
-61 c0 -57 1 -60 24 -60 19 0 25 -6 28 -27 2 -23 8 -29 36 -31 31 -3 32 -4 32
-53 0 -41 3 -49 18 -49 33 0 42 -22 42 -101 0 -73 1 -78 23 -81 16 -2 23 -11
25 -30 3 -24 8 -28 33 -28 l30 0 -3 113 -3 112 -27 3 c-25 3 -28 7 -28 41 0
21 -3 59 -6 85 -6 40 -10 46 -30 46 -19 0 -24 5 -24 25 0 20 -5 25 -25 25 -31
0 -32 4 -38 103 l-5 77 34 0 c31 0 34 3 34 29 0 25 4 30 28 33 27 3 27 3 30
91 3 85 3 87 27 87 20 0 25 5 25 25 0 21 5 25 30 25 28 0 29 1 32 58 l3 57 59
3 58 3 -6 50 c-4 27 -4 53 -2 58 5 7 118 8 219 3z m-568 -82 c0 -18 -6 -26
-22 -28 -20 -3 -23 1 -23 28 0 27 3 31 23 28 16 -2 22 -10 22 -28z m-345 -345
c0 -20 -5 -25 -25 -25 -18 0 -25 5 -25 18 0 24 8 32 32 32 13 0 18 -7 18 -25z
m1220 -640 c0 -20 -5 -25 -25 -25 -20 0 -25 5 -25 25 0 20 5 25 25 25 20 0 25
-5 25 -25z"/>
<path d="M2770 4145 c0 -20 -5 -25 -24 -25 -18 0 -25 -7 -29 -30 -5 -24 -12
-30 -31 -30 -19 0 -25 -6 -28 -27 -2 -22 -9 -29 -30 -31 -24 -3 -27 -8 -33
-57 -7 -49 -10 -54 -34 -57 -25 -3 -26 -6 -26 -58 0 -53 -1 -55 -27 -58 -22
-3 -28 -9 -28 -26 0 -20 7 -24 46 -30 54 -7 64 -3 64 29 0 18 6 24 28 27 26 3
27 5 27 58 0 53 1 55 30 60 24 4 31 11 33 33 3 21 9 27 27 27 18 0 24 6 27 28
2 19 9 28 25 30 18 3 23 12 28 50 9 66 12 72 35 72 13 0 20 7 20 20 0 17 -7
20 -50 20 -47 0 -50 -2 -50 -25z"/>
<path d="M1490 550 l0 -250 128 0 c152 0 190 9 231 56 26 29 31 43 31 85 0 45
-4 55 -34 85 -19 19 -44 34 -57 34 -22 1 -21 2 7 14 90 39 86 164 -6 211 -22
11 -64 15 -165 15 l-135 0 0 -250z m238 154 c15 -10 22 -25 22 -49 0 -28 -6
-37 -30 -50 -16 -8 -49 -15 -75 -15 l-45 0 0 65 0 65 53 0 c31 0 61 -6 75 -16z
m20 -204 c26 -25 29 -66 5 -92 -13 -14 -31 -18 -85 -18 l-68 0 0 65 0 65 63 0
c50 0 68 -4 85 -20z"/>
<path d="M2070 550 l0 -250 170 0 170 0 0 45 0 45 -115 0 -115 0 0 60 0 60
105 0 105 0 0 45 0 45 -105 0 -105 0 0 60 0 60 115 0 115 0 0 40 0 40 -170 0
-170 0 0 -250z"/>
<path d="M2590 760 l0 -40 80 0 80 0 0 -210 0 -210 50 0 50 0 2 208 3 207 78
3 77 3 0 39 0 40 -210 0 -210 0 0 -40z"/>
<path d="M3335 788 c-17 -45 -165 -480 -165 -484 0 -3 26 -4 57 -2 l58 3 15
53 15 53 94 -3 94 -3 17 -50 17 -50 56 -3 c31 -2 57 -1 57 1 0 5 -133 393
-156 455 l-16 42 -69 0 c-47 0 -71 -4 -74 -12z m104 -182 c11 -41 24 -82 27
-90 5 -14 -4 -16 -55 -16 -34 0 -61 3 -61 7 0 16 55 173 61 173 3 0 16 -33 28
-74z"/>
</g>
</svg>
